<svg width="198" height="48" viewBox="0 0 198 48" fill="none" xmlns="http://www.w3.org/2000/svg">
<path fill-rule="evenodd" clip-rule="evenodd" d="M18.6792 5.73462H60.8998V47.9999H18.6792V5.73462Z" fill="black"/>
<path fill-rule="evenodd" clip-rule="evenodd" d="M19.9004 6.9563H59.6787V46.7776H19.9004V6.9563Z" fill="#FFF200"/>
<path fill-rule="evenodd" clip-rule="evenodd" d="M22.0108 38.7318L27.1999 44.027L39.3576 31.6789L51.922 44.2813L57.1869 39.0621L44.7486 26.6125L47.1397 24.2957V19.3564L48.6406 18.0837V21.9532L50.5738 23.5316L56.3469 17.7524L58.2033 19.178C59.2974 15.13 52.964 5.93873 47.7247 11.0308L41.6198 17.09L42.8666 18.5924L39.7634 21.622L36.7626 18.6684L38.3393 17.2419L31.6503 10.7755C26.6149 6.62498 21.4514 12.9404 21.2732 19.1012L23.104 17.574L28.7245 23.6341L30.7336 21.9542V18.2365L31.9794 19.178V24.0413L34.4208 26.4853L22.0108 38.7318Z" fill="black"/>
<path fill-rule="evenodd" clip-rule="evenodd" d="M71.6837 10.8012V14.4676H73.2604C75.4221 14.0604 74.8371 10.954 73.2604 10.8012H71.6837ZM67.2076 7.16034V23.7614H71.6837V18.3637L75.4989 23.7614H80.7894L76.0848 17.1166C81.5279 14.4685 79.4933 7.2372 73.7704 7.16126H67.2076V7.16034ZM87.9107 15.4604C89.386 15.4604 90.5806 16.5804 90.5806 17.9556C90.5806 19.33 89.3851 20.4509 87.9107 20.4509C86.461 20.4509 85.2655 19.33 85.2655 17.9556C85.2655 16.5804 86.461 15.4604 87.9107 15.4604ZM86.9692 11.794C88.1904 11.794 89.3348 12.2011 90.2753 12.8627V12.2268H94.65L94.6755 23.7605H90.2497L90.2753 23.0477C89.3348 23.7092 88.1904 24.0917 86.9692 24.0917C83.7134 24.0917 81.0435 21.3421 81.0435 17.9556C81.0435 14.5692 83.7143 11.794 86.9692 11.794ZM96.9908 12.2268H101.645V23.7605H96.9908V12.2268ZM99.3299 5.63228C100.679 5.63228 101.772 6.75225 101.772 8.10189C101.772 9.45153 100.679 10.5715 99.3299 10.5715C97.957 10.5715 96.8629 9.45062 96.8629 8.10189C96.8638 6.75316 97.957 5.63228 99.3299 5.63228ZM134.659 12.2268H139.313V23.7605H134.659V12.2268ZM136.973 5.63228C138.347 5.63228 139.44 6.75225 139.44 8.10189C139.44 9.45153 138.347 10.5715 136.973 10.5715C135.625 10.5715 134.532 9.45062 134.532 8.10189C134.532 6.75316 135.625 5.63228 136.973 5.63228ZM102.51 12.2268V15.8932H104.112V23.7605H108.615V15.8932H112.837V23.7605H117.491V15.8429H120.39V12.278H117.363V9.70682C117.287 8.76527 119.5 8.3828 120.263 9.14683V5.3779C115.99 4.02826 112.531 6.44755 112.556 10.1899V12.2268H108.588V9.70682C108.537 8.76527 110.471 8.3828 111.589 9.14683V5.3779C107.875 4.28355 103.908 6.0907 103.934 10.1643V12.2011L102.51 12.2268ZM127.028 24.0917C131.022 24.0661 132.496 22.4117 133.362 19.9925H129.318C127.486 22.3349 124.815 20.6293 124.943 18.7197H133.49C133.49 14.0348 130.996 11.8196 127.029 11.8196C123.062 11.8196 120.57 14.6204 120.57 18.0325C120.57 21.4446 123.468 24.1173 127.028 24.0917ZM125.527 15.9957C125.578 14.5948 128.63 14.5948 128.833 15.9957H125.527ZM158.719 24.0917C162.737 24.0661 164.213 22.4117 165.077 19.9925H161.008C159.177 22.3349 156.506 20.6293 156.634 18.7197H165.18C165.18 14.0348 162.713 11.8196 158.72 11.8196C154.752 11.8196 152.26 14.6204 152.26 18.0325C152.26 21.4446 155.158 24.1173 158.719 24.0917ZM157.218 15.9957C157.269 14.5948 160.321 14.5948 160.524 15.9957H157.218ZM151.038 12.4564L149.664 15.2573C147.935 14.722 146.256 14.8245 146.307 15.3076C146.358 15.6132 146.079 16.1476 148.774 16.5301C152.792 17.166 152.462 24.6517 145.722 24.0917C143.866 23.9645 142.365 23.4805 141.119 22.7421L142.62 19.7372C144.731 20.7812 146.765 21.3924 146.918 20.3484C147.096 19.05 144.705 19.5084 143.255 18.4131C140.661 16.8091 142.135 11.8443 146.384 11.793C147.884 11.6924 149.436 11.9468 151.038 12.4564ZM166.96 12.2268V23.7605H171.31V16.7076C171.437 14.9507 174.896 14.6451 174.921 16.7076V23.7605H179.321V16.5301C179.219 12.482 174.972 10.5212 171.131 13.0924V12.2268H166.96ZM69.7761 30.8134L66.8767 47.9231H75.0921C80.6623 47.9231 82.9511 40.9983 78.9832 38.6303C82.3661 35.4982 80.6367 30.7887 76.9998 30.7374L69.7761 30.8134ZM73.1078 41.0231L72.5228 43.8495H74.4304C76.5921 43.9511 76.338 41.0231 75.0921 41.0231H73.1078ZM74.0739 34.887L73.5913 37.1791L74.1763 37.2038C75.9312 37.3054 76.9486 34.887 74.8371 34.887H74.0739ZM80.8397 47.9488H85.8249L87.3257 44.9439H92.9718L93.8109 48H98.414L94.4214 30.9149H89.7159L80.8397 47.9488ZM88.9536 41.3543H92.0568L91.0651 36.8469L88.9536 41.3543ZM99.9916 48H104.596L105.765 37.2807L112.352 47.9488H117.286L119.347 30.8124H114.743L113.446 41.5318L106.858 30.7612H102.102L99.9916 48ZM122.654 30.7621L119.423 47.9488H124.281L125.578 41.5318L129.927 47.9488H136.311L130.08 38.935L138.041 30.7365H131.861L126.418 36.7957L127.282 30.7365L122.654 30.7621Z" fill="#737373"/>
</svg>
