<svg width="198" height="40" viewBox="0 0 198 40" fill="none" xmlns="http://www.w3.org/2000/svg">
<path d="M84.7425 7.62712V29.5932H80.9295V12.3559H80.8786L74.066 29.5932H71.524L64.5588 12.3559H64.508V29.5932H61V7.62712H66.4908L72.795 23.8983H72.8967L79.5568 7.62712H84.7425V7.62712ZM87.8946 9.30509C87.8946 8.69492 88.098 8.18644 88.5556 7.77966C89.0131 7.37288 89.5215 7.16949 90.1316 7.16949C90.7925 7.16949 91.3518 7.37288 91.7585 7.77966C92.1652 8.18644 92.4194 8.69492 92.4194 9.30509C92.4194 9.91525 92.2161 10.4237 91.7585 10.8305C91.3009 11.2373 90.7925 11.4407 90.1316 11.4407C89.4707 11.4407 88.9623 11.2373 88.5556 10.8305C88.1488 10.3729 87.8946 9.86441 87.8946 9.30509ZM92.0127 13.8305V29.5932H88.3014V13.8305H92.0127ZM103.248 26.8983C103.808 26.8983 104.418 26.7966 105.079 26.4915C105.74 26.2373 106.35 25.8814 106.909 25.4746V28.9322C106.299 29.2881 105.638 29.5424 104.875 29.6949C104.113 29.8475 103.299 29.9492 102.384 29.9492C100.046 29.9492 98.1644 29.2373 96.7409 27.7627C95.2665 26.2881 94.5547 24.4068 94.5547 22.1695C94.5547 19.6271 95.3173 17.5424 96.7917 15.9153C98.2661 14.2881 100.351 13.4746 103.096 13.4746C103.808 13.4746 104.519 13.5763 105.18 13.7288C105.892 13.8814 106.451 14.1356 106.858 14.339V17.8983C106.299 17.4915 105.689 17.1356 105.13 16.9322C104.519 16.7288 103.909 16.5763 103.299 16.5763C101.825 16.5763 100.656 17.0339 99.7405 18C98.8253 18.9661 98.4186 20.2373 98.4186 21.8644C98.4186 23.4407 98.8762 24.7119 99.7405 25.5763C100.605 26.4407 101.774 26.8983 103.248 26.8983ZM117.433 13.5763C117.738 13.5763 117.992 13.5763 118.246 13.6271C118.501 13.678 118.704 13.7288 118.857 13.7797V17.5424C118.653 17.3898 118.399 17.2373 117.992 17.1356C117.585 17.0339 117.179 16.9322 116.62 16.9322C115.704 16.9322 114.942 17.339 114.332 18.1017C113.722 18.8644 113.366 20.0339 113.366 21.661V29.5932H109.654V13.8305H113.366V16.322H113.417C113.772 15.4576 114.281 14.7966 114.942 14.2881C115.654 13.8305 116.467 13.5763 117.433 13.5763ZM119.06 21.9661C119.06 19.3729 119.822 17.2881 121.246 15.7627C122.72 14.2373 124.754 13.4746 127.347 13.4746C129.787 13.4746 131.719 14.1864 133.092 15.661C134.465 17.1356 135.176 19.1186 135.176 21.6102C135.176 24.1525 134.414 26.1864 132.99 27.7119C131.516 29.2373 129.533 30 126.991 30C124.551 30 122.619 29.2881 121.195 27.8644C119.772 26.3898 119.06 24.4068 119.06 21.9661ZM122.924 21.8136C122.924 23.4407 123.28 24.7119 124.042 25.5763C124.805 26.4407 125.872 26.8983 127.245 26.8983C128.567 26.8983 129.635 26.4915 130.346 25.5763C131.058 24.7119 131.414 23.4407 131.414 21.7119C131.414 20.0339 131.058 18.7627 130.346 17.8475C129.635 16.9831 128.567 16.5254 127.296 16.5254C125.923 16.5254 124.907 16.983 124.144 17.8983C123.28 18.8644 122.924 20.1356 122.924 21.8136ZM140.718 18C140.718 18.5085 140.87 18.9661 141.226 19.2712C141.582 19.5763 142.294 19.9322 143.463 20.3898C144.938 21 146.005 21.661 146.565 22.3729C147.175 23.1356 147.48 24 147.48 25.0678C147.48 26.5424 146.92 27.7119 145.751 28.6271C144.633 29.5424 143.057 29.9492 141.125 29.9492C140.464 29.9492 139.752 29.8475 138.939 29.6949C138.125 29.5424 137.464 29.339 136.905 29.0847V25.4237C137.566 25.8814 138.328 26.2881 139.091 26.5424C139.854 26.7966 140.565 26.9492 141.226 26.9492C142.04 26.9492 142.701 26.8475 143.057 26.5932C143.463 26.339 143.667 25.9831 143.667 25.4237C143.667 24.9153 143.463 24.5085 143.057 24.1017C142.65 23.7458 141.836 23.339 140.718 22.8814C139.345 22.322 138.379 21.661 137.82 20.9492C137.261 20.2373 136.956 19.322 136.956 18.2034C136.956 16.7797 137.515 15.6102 138.633 14.6949C139.752 13.7797 141.226 13.322 143.006 13.322C143.565 13.322 144.175 13.3729 144.836 13.5254C145.497 13.678 146.107 13.8305 146.565 13.9831V17.5932C146.056 17.2881 145.497 16.9831 144.836 16.7288C144.175 16.4746 143.514 16.3729 142.904 16.3729C142.192 16.3729 141.633 16.5254 141.277 16.7797C140.921 17.1356 140.718 17.4915 140.718 18ZM149.056 21.9661C149.056 19.3729 149.818 17.2881 151.242 15.7627C152.716 14.2373 154.75 13.4746 157.343 13.4746C159.783 13.4746 161.715 14.1864 163.088 15.661C164.46 17.1356 165.172 19.1186 165.172 21.6102C165.172 24.1525 164.41 26.1864 162.986 27.7119C161.512 29.2373 159.529 30 156.987 30C154.547 30 152.615 29.2881 151.191 27.8644C149.818 26.3898 149.056 24.4068 149.056 21.9661ZM152.92 21.8136C152.92 23.4407 153.276 24.7119 154.038 25.5763C154.801 26.4407 155.868 26.8983 157.241 26.8983C158.563 26.8983 159.631 26.4915 160.342 25.5763C161.054 24.7119 161.41 23.4407 161.41 21.7119C161.41 20.0339 161.054 18.7627 160.342 17.8475C159.631 16.9831 158.563 16.5254 157.292 16.5254C155.919 16.5254 154.902 16.983 154.14 17.8983C153.326 18.8644 152.92 20.1356 152.92 21.8136ZM177.526 16.8814H171.985V29.5932H168.223V16.8814H165.579V13.8305H168.223V11.6441C168.223 10.0169 168.782 8.64407 169.85 7.57627C170.917 6.50847 172.29 6 173.968 6C174.425 6 174.832 6.05085 175.188 6.05085C175.544 6.05085 175.849 6.15254 176.103 6.25424V9.45763C176.001 9.40678 175.747 9.30508 175.442 9.20339C175.137 9.1017 174.781 9.05085 174.374 9.05085C173.612 9.05085 173.002 9.30509 172.595 9.76271C172.188 10.2203 171.985 10.9831 171.985 11.8983V13.7797H177.526V10.2203L181.238 9.10169V13.7797H185V16.8305H181.238V24.2034C181.238 25.1695 181.441 25.8305 181.746 26.2373C182.102 26.6441 182.661 26.8475 183.424 26.8475C183.627 26.8475 183.882 26.7966 184.187 26.6949C184.492 26.5932 184.746 26.4915 184.949 26.339V29.3898C184.695 29.5424 184.339 29.6441 183.78 29.7458C183.221 29.8475 182.712 29.8983 182.153 29.8983C180.577 29.8983 179.408 29.4915 178.645 28.678C177.882 27.8644 177.476 26.5932 177.476 24.9153L177.526 16.8814Z" fill="white"/>
<path d="M30.4242 0.757568H13V18.0879H30.4242V0.757568Z" fill="#F25022"/>
<path d="M49.6825 0.757568H32.2583V18.0879H49.6825V0.757568Z" fill="#7FBA00"/>
<path d="M30.4242 19.9121H13V37.2424H30.4242V19.9121Z" fill="#00A4EF"/>
<path d="M49.6825 19.9121H32.2583V37.2424H49.6825V19.9121Z" fill="#FFB900"/>
</svg>
